<svg id="Capa_1" enable-background="new 0 0 512.001 512.001" height="512" viewBox="0 0 512.001 512.001" width="512" xmlns="http://www.w3.org/2000/svg"><g><circle cx="166" cy="226" r="15"/><ellipse cx="346" cy="226" rx="15" ry="15" transform="matrix(.383 -.924 .924 .383 4.795 459.176)"/><path d="m3.34 161.704c-3.119 3.855-4.132 9.002-2.705 13.751 5.445 18.124 19.624 32.222 37.928 37.711 18.959 5.685 39.345 1.528 54.584-11.116-1.42 7.889-2.147 15.912-2.147 23.95 0 25.095 6.883 49.195 19.546 70.032-32.033 30.25-49.546 68.903-49.546 109.968 0 36.652 14.15 72.536 39.845 101.043 5.202 5.771 13.949 6.615 20.159 1.945.075-.103 46.427-34.249 36.37-93.601 4.374-2.648 9.022-5.102 13.914-7.349 19.632 26.783 51.004 42.962 84.712 42.962s65.081-16.18 84.713-42.963c4.954 2.275 9.659 4.762 14.081 7.448-9.973 63.112 36.094 93.354 36.202 93.501 6.195 4.66 14.946 3.84 20.159-1.944 25.695-28.506 39.845-64.39 39.845-101.042 0-41.065-17.513-79.719-49.546-109.968 12.663-20.837 19.546-44.937 19.546-70.032 0-8.359-.793-16.7-2.327-24.892.334.271.68.529 1.009.804 15.172 12.682 35.366 16.914 54.02 11.32 18.109-5.43 32.189-19.552 37.664-37.777 1.427-4.749.414-9.896-2.705-13.751-8.908-11.009-19.243-20.577-30.695-28.561 29.668-64.349 3.79-119.318 3.264-122.887-1.31-3.93-4.188-7.144-7.95-8.878s-8.075-1.836-11.915-.28l-113.22 45.888c-13.139 5.255-24.35 14.001-32.578 25.215-18.849-7.309-39.048-11.201-59.567-11.201-20.518 0-40.717 3.892-59.568 11.201-8.224-11.213-19.424-19.953-32.514-25.189l-113.283-45.913c-3.84-1.557-8.152-1.455-11.915.28s-6.64 4.948-7.95 8.879c-.539 3.655-26.416 58.509 3.265 122.886-11.452 7.983-21.787 17.551-30.695 28.56zm117.66 214.296c0 11.933 1.577 23.757 4.654 35.184.151.876.378 1.743.688 2.593 5.957 22.112.899 45.24-12.705 61.347-14.684-20.66-22.637-44.728-22.637-69.124 0-32.695 14.283-62.713 38.007-86.099.941.97 1.896 1.929 2.869 2.873-7.098 16.568-10.876 34.606-10.876 53.226zm0-150c0-14.86 3.005-29.118 8.939-42.476 6.858-1.651 13.924-2.524 21.061-2.524 38.831 0 72.903 25.22 85.153 60.844-37.438 3.18-72.618 15.337-101.934 35.216-8.581-15.404-13.219-32.897-13.219-51.06zm30.347 158.43c-.222-2.798-.347-5.609-.347-8.43 0-43.873 26.727-80.973 64.144-96.71l25.856 41.041v41.102c-30.452 1.728-62.325 8.906-89.653 22.997zm104.653 36.57c-20.87 0-40.485-8.689-54.479-23.464 16.939-4.264 35.413-6.536 54.479-6.536 19.065 0 37.539 2.272 54.478 6.536-13.993 14.775-33.608 23.464-54.478 23.464zm-10.262-149.43c7.295-.714 8.08-.375 10.259-.422h.007c2.009.034 3.417-.262 10.291.371l-10.295 16.34zm114.937 112.871c-27.039-13.948-58.809-21.257-89.675-23.008v-41.102l26.011-41.288c31.298 13.125 54.531 41.443 61.428 73.339 2.336 10.799 3.077 21.523 2.236 32.059zm-84.828-142.597c12.251-35.624 46.323-60.844 85.153-60.844 7.078 0 14.15.851 21.028 2.448 5.957 13.38 8.972 27.664 8.972 42.552 0 18.163-4.638 35.656-13.219 51.06-29.317-19.879-64.496-32.035-101.934-35.216zm145.153 164.156c0 24.385-7.948 48.445-22.619 69.099-13.743-16.385-18.51-40.033-12.102-63.596 5.78-21.255 6.279-43.279 1.483-65.462-1.739-8.045-4.257-15.879-7.473-23.428.915-.891 1.815-1.794 2.702-2.708 23.726 23.385 38.009 53.398 38.009 86.095zm58.429-232.201c-3.313 5.12-8.288 8.882-14.344 10.698-8.967 2.69-18.748.596-26.161-5.601-21.517-17.989-49.191-27.896-77.924-27.896-14.392 0-28.533 2.581-41.796 7.507 8.685-6.346 18.325-11.455 28.741-15.062 46.724-16.184 97.785-5.508 131.484 30.354zm-120.078-98.984 98.333-39.854c7.651 27.487 5.412 57.53-6.011 83.537-5.579-2.409-11.323-4.51-17.227-6.256-20.628-6.102-42.239-7.713-63.779-4.876-8.439-8.145-17.694-15.318-27.565-21.442 4.478-4.799 9.99-8.605 16.249-11.109zm-103.351 16.185c29.656 0 56.747 9.372 78.8 25.325-27.387 10.271-50.717 28.805-67.611 53.825-4.226 6.259-7.961 12.785-11.189 19.526-3.229-6.741-6.964-13.267-11.189-19.526-16.893-25.02-40.223-43.554-67.611-53.825 22.056-15.955 49.148-25.325 78.8-25.325zm-201.683-56.039 98.396 39.879c6.221 2.488 11.716 6.287 16.187 11.082-9.872 6.124-19.127 13.297-27.567 21.443-21.54-2.837-43.15-1.226-63.779 4.876-5.904 1.746-11.648 3.847-17.227 6.256-11.423-26.006-13.661-56.048-6.01-83.536zm109.738 108.484c10.416 3.608 20.056 8.717 28.741 15.062-13.263-4.926-27.404-7.507-41.796-7.507-28.485 0-55.74 10.186-76.923 27.895-7.499 6.269-17.553 8.339-26.897 5.536-6.181-1.854-11.236-5.602-14.579-10.664 33.724-35.858 84.779-46.488 131.454-30.322z"/></g></svg>